<svg xmlns="http://www.w3.org/2000/svg" viewBox="0 0 1024 1024" role="img" aria-labelledby="title desc">
  <title id="title">Trading Journal AI icon</title>
  <desc id="desc">A journal page with a trading chart line and candlestick marks.</desc>
  <defs>
    <linearGradient id="page" x1="272" y1="148" x2="752" y2="876" gradientUnits="userSpaceOnUse">
      <stop offset="0" stop-color="#f8fbff"/>
      <stop offset="1" stop-color="#dbe5f2"/>
    </linearGradient>
    <linearGradient id="cover" x1="176" y1="112" x2="848" y2="912" gradientUnits="userSpaceOnUse">
      <stop offset="0" stop-color="#171c26"/>
      <stop offset="1" stop-color="#0b0d12"/>
    </linearGradient>
    <filter id="shadow" x="120" y="96" width="784" height="856" filterUnits="userSpaceOnUse" color-interpolation-filters="sRGB">
      <feDropShadow dx="0" dy="28" stdDeviation="34" flood-color="#000000" flood-opacity="0.42"/>
    </filter>
  </defs>

  <rect width="1024" height="1024" rx="220" fill="#0b0d12"/>
  <rect x="64" y="64" width="896" height="896" rx="184" fill="#12151d"/>
  <path d="M182 808C244 676 291 486 329 240C342 157 395 112 476 112H726C795 112 848 165 848 234V790C848 859 795 912 726 912H302C215 912 145 860 182 808Z" fill="url(#cover)" filter="url(#shadow)"/>
  <path d="M320 174H704C751 174 786 209 786 256V768C786 815 751 850 704 850H320C273 850 238 815 238 768V256C238 209 273 174 320 174Z" fill="url(#page)"/>
  <path d="M318 174H392V850H318C271 850 236 815 236 768V256C236 209 271 174 318 174Z" fill="#4d9bff"/>
  <path d="M354 250V772" stroke="#0b0d12" stroke-opacity="0.2" stroke-width="16" stroke-linecap="round"/>

  <path d="M464 656L548 566L626 604L728 436" fill="none" stroke="#4d9bff" stroke-width="42" stroke-linecap="round" stroke-linejoin="round"/>
  <path d="M464 656L548 566L626 604L728 436" fill="none" stroke="#0b0d12" stroke-opacity="0.14" stroke-width="12" stroke-linecap="round" stroke-linejoin="round"/>

  <path d="M472 424V576" stroke="#1db26b" stroke-width="24" stroke-linecap="round"/>
  <rect x="440" y="462" width="64" height="76" rx="18" fill="#1db26b"/>
  <path d="M558 360V516" stroke="#f05143" stroke-width="24" stroke-linecap="round"/>
  <rect x="526" y="390" width="64" height="78" rx="18" fill="#f05143"/>
  <path d="M642 466V650" stroke="#1db26b" stroke-width="24" stroke-linecap="round"/>
  <rect x="610" y="528" width="64" height="74" rx="18" fill="#1db26b"/>
  <path d="M728 308V492" stroke="#1db26b" stroke-width="24" stroke-linecap="round"/>
  <rect x="696" y="350" width="64" height="92" rx="18" fill="#1db26b"/>

  <path d="M448 282H696" stroke="#0b0d12" stroke-opacity="0.16" stroke-width="26" stroke-linecap="round"/>
  <path d="M448 754H624" stroke="#0b0d12" stroke-opacity="0.14" stroke-width="24" stroke-linecap="round"/>
  <path d="M646 754H708" stroke="#0b0d12" stroke-opacity="0.14" stroke-width="24" stroke-linecap="round"/>
</svg>
